<svg xmlns="http://www.w3.org/2000/svg" xmlns:xlink="http://www.w3.org/1999/xlink" width="71" height="71" viewBox="0 0 71 71">
  <defs>
    <rect id="rect-1" width="71" height="71" x="0" y="0"/>
    <mask id="mask-2" maskContentUnits="userSpaceOnUse" maskUnits="userSpaceOnUse">
      <rect width="71" height="71" x="0" y="0" fill="black"/>
      <use fill="white" xlink:href="#rect-1"/>
    </mask>
  </defs>
  <g>
    <use fill="none" xlink:href="#rect-1"/>
    <g mask="url(#mask-2)">
      <path fill="none" d="M0 0h71v71H0V0z"/>
      <path fill="rgb(14,138,151)" fill-rule="evenodd" d="M35.5 5.91666603C19.16999817 5.91666603 5.91666412 19.16999817 5.91666412 35.5c0 16.33000374 13.25333405 29.58333778 29.58333588 29.58333778S65.08332825 51.83000374 65.08332825 35.5c0-16.33000183-13.25332642-29.58333397-29.58332825-29.58333397zM11.83333588 35.5c0 13.0462513 10.62041473 23.66666603 23.66666412 23.66666603S59.16667175 48.5462513 59.16667175 35.5c0-13.04624939-10.62042236-23.66666794-23.66667175-23.66666794S11.83333588 22.45375061 11.83333588 35.5zM35.5 20.70833206c-1.62708282 0-2.95832825 1.33124924-2.95832825 2.95833206v8.875h-8.875c-1.62708282 0-2.95833587 1.33125306-2.95833587 2.95833588 0 1.62708282 1.33125305 2.95833015 2.95833587 2.95833015h8.875v8.875c0 1.62709046 1.33124543 2.95833588 2.95832825 2.95833588 1.62709045 0 2.95833588-1.33124542 2.95833588-2.95833588v-8.875h8.875c1.62708282 0 2.95833587-1.33124733 2.95833587-2.95833015s-1.33125305-2.95833588-2.95833587-2.95833588h-8.875v-8.875c0-1.62708282-1.33124543-2.95833206-2.95833588-2.95833206z"/>
    </g>
  </g>
</svg>
