<svg xmlns="http://www.w3.org/2000/svg" xmlns:xlink="http://www.w3.org/1999/xlink" width="16" height="16" viewBox="0 0 16 16">
  <defs>
    <rect id="rect-1" width="16" height="16" x="0" y="0"/>
    <mask id="mask-2" maskContentUnits="userSpaceOnUse" maskUnits="userSpaceOnUse">
      <rect width="16" height="16" x="0" y="0" fill="black"/>
      <use fill="white" xlink:href="#rect-1"/>
    </mask>
  </defs>
  <g>
    <use fill="none" xlink:href="#rect-1"/>
    <g mask="url(#mask-2)">
      <path fill="none" d="M0 0h16v16H0V0z"/>
      <path fill="rgb(239,238,237)" fill-rule="evenodd" d="M10.33333325 2.66666675h1.66666699c.3666668 0 .66666603.29999995.66666603.66666674 0 .36666656-.29999924.66666651-.66666603.66666651H4c-.3666668 0-.66666675-.29999995-.66666675-.6666665 0-.3666668.29999996-.66666675.66666675-.66666675h1.6666665l.47333337-.47333336C6.26000023 2.07333326 6.4333334 2 6.60666657 2h2.7866671c.17333317 0 .34666634.07333326.46666623.19333339l.47333335.47333336zM5.3333335 14C4.5999999 14 4 13.39999962 4 12.66666603V6c0-.73333359.5999999-1.3333335 1.3333335-1.3333335h5.33333277c.73333359 0 1.33333397.59999991 1.33333397 1.3333335v6.66666603C12.00000024 13.39999962 11.39999986 14 10.66666627 14H5.33333349z"/>
    </g>
  </g>
</svg>
