<svg xmlns="http://www.w3.org/2000/svg" xmlns:xlink="http://www.w3.org/1999/xlink" width="65" height="65" viewBox="0 0 65 65">
  <defs>
    <rect id="rect-1" width="65" height="65" x="0" y="0"/>
    <rect id="rect-2" width="65" height="65" x="0" y="0"/>
    <mask id="mask-3" maskContentUnits="userSpaceOnUse" maskUnits="userSpaceOnUse">
      <rect width="65" height="65" x="0" y="0" fill="black"/>
      <use fill="white" xlink:href="#rect-2"/>
    </mask>
  </defs>
  <g>
    <use fill="none" xlink:href="#rect-2"/>
    <g mask="url(#mask-3)">
      <path fill="rgb(14,138,151)" fill-rule="evenodd" d="M5.41666667 24.375c0-10.43831984 8.52001349-18.95833333 18.95833333-18.95833333 10.43831984 0 18.95833333 8.52001349 18.95833333 18.95833333 0 4.7341619-1.76576733 9.05939897-4.65494791 12.38850911l1.15315755 1.15315756h3.50179036l16.25 16.25-5.41666666 5.41666666-16.25-16.25v-3.50179036l-1.15315756-1.15315755C33.43439897 41.567566 29.1091619 43.33333333 24.375 43.33333333c-10.43831984 0-18.95833333-8.52001349-18.95833333-18.95833333zm32.5 0c0-7.51093606-6.0307332-13.54166667-13.54166667-13.54166667-7.51093606 0-13.54166667 6.0307306-13.54166667 13.54166667 0 7.51093348 6.0307306 13.54166667 13.54166667 13.54166667 7.51093348 0 13.54166667-6.0307332 13.54166667-13.54166667z"/>
    </g>
  </g>
</svg>
