<svg xmlns="http://www.w3.org/2000/svg" xmlns:xlink="http://www.w3.org/1999/xlink" width="16" height="16" viewBox="0 0 16 16">
  <defs>
    <rect id="rect-1" width="16" height="16" x="0" y="0"/>
    <mask id="mask-2" maskContentUnits="userSpaceOnUse" maskUnits="userSpaceOnUse">
      <rect width="16" height="16" x="0" y="0" fill="black"/>
      <use fill="white" xlink:href="#rect-1"/>
    </mask>
  </defs>
  <g>
    <use fill="none" xlink:href="#rect-1"/>
    <g mask="url(#mask-2)">
      <path fill="rgb(239,238,237)" fill-rule="evenodd" d="M12 1.33333333c-1.1045695 0-2 .8954305-2 2 .00040736.12543366.01261403.25055086.03645867.37369794L5.29296873 6.47395833C4.93167353 6.16789618 4.47350635 5.9999477 4 6c-1.1045695 0-2 .8954305-2 2s.8954305 2 2 2c.47277486-.00092747.9299356-.16930664 1.2903646-.47526067l4.74609407 2.76822934c-.02384464.1231471-.03605131.24826431-.03645867.373698 0 1.1045695.8954305 2 2 2s2-.8954305 2-2-.8954305-2-2-2c-.47322277.00061966-.93089608.1690177-1.29166667.47526066L5.96354167 8.373698C5.9873862 8.2505509 5.99959275 8.12543367 6 8c-.00040725-.12543367-.0126138-.2505509-.03645833-.373698l4.74348966-2.766927c.3612952.30606214.81946234.47401062 1.29296867.47395833 1.1045695 0 2-.8954305 2-2s-.8954305-2-2-2z"/>
    </g>
  </g>
</svg>
